<svg xmlns="http://www.w3.org/2000/svg" xmlns:xlink="http://www.w3.org/1999/xlink" version="1.1" x="0px" y="0px" viewBox="0 0 720 720" style="enable-background:new 0 0 720 720;" xml:space="preserve">
<style type="text/css">
	.st0{enable-background:new    ;}
	.st1{fill-rule:evenodd;clip-rule:evenodd;fill:#CCE9FF;}
	.st2{fill-rule:evenodd;clip-rule:evenodd;fill:#F2F2F2;}
	.st3{fill-rule:evenodd;clip-rule:evenodd;fill:#D3D3D3;}
	.st4{fill-rule:evenodd;clip-rule:evenodd;fill:#0B4870;}
	.st5{fill-rule:evenodd;clip-rule:evenodd;fill:#30C34F;}
	.st6{fill-rule:evenodd;clip-rule:evenodd;fill:#D54949;}
	.st7{fill-rule:evenodd;clip-rule:evenodd;fill:#FFBE55;}
	.st8{fill-rule:evenodd;clip-rule:evenodd;fill:#F8B8A9;}
	.st9{fill-rule:evenodd;clip-rule:evenodd;fill:#2A94F4;}
	.st10{fill-rule:evenodd;clip-rule:evenodd;fill:#1D81DB;}
	.st11{fill-rule:evenodd;clip-rule:evenodd;fill:#FFE3CA;}
	.st12{fill-rule:evenodd;clip-rule:evenodd;fill:#FCD2B1;}
	.st13{fill-rule:evenodd;clip-rule:evenodd;fill:#004970;}
	.st14{fill-rule:evenodd;clip-rule:evenodd;fill:#FED17A;}
	.st15{fill-rule:evenodd;clip-rule:evenodd;fill:#01384F;}
</style>
<g id="Shape_9_1_" class="st0">
	<g id="Shape_9">
		<g>
			<path class="st1" d="M635.9,338.7C649.9,163.8,486,168.8,451.7,192.5c-34.3,23.8-42.7,44.2-87,42.5s-63.9-19.7-121.3,0.7     C186,256,193.3,309.5,189.1,340c-4.3,30.5,6.9,46.3-66.3,83.2S72.2,530.7,70.6,538.1c-1.6,7.4,584-17,584-17     S621.8,513.5,635.9,338.7z"/>
		</g>
	</g>
</g>
<g id="monitor_1_">
	<g id="Ellipse_2">
		<g>
			<ellipse class="st2" cx="547.1" cy="520.2" rx="21.2" ry="16"/>
		</g>
	</g>
	<g id="Ellipse_2_copy">
		<g>
			<path class="st3" d="M547.1,504.2c-4.8,0-9.2,1.2-12.8,3.2c-0.7,0.4,9.4,3.5,25.8,0.2C556.5,505.5,552,504.2,547.1,504.2z"/>
		</g>
	</g>
	<g id="Rectangle_6">
		<g>
			<rect x="546.7" y="504.2" class="st2" width="1.2" height="2.4"/>
		</g>
	</g>
	<g id="Rounded_Rectangle_1">
		<g>
			<path class="st3" d="M593,273.4H296.8c-1.3,0-2.4,1.1-2.4,2.4v198.7c0,1.3,1.1,2.4,2.4,2.4h160.7v44.5h24.1v-44.5H593     c1.3,0,2.4-1.1,2.4-2.4V275.8C595.4,274.5,594.4,273.4,593,273.4z"/>
		</g>
	</g>
	<g id="Rounded_Rectangle_1_copy_2">
		<g>
			<path class="st2" d="M582.8,273.4H286.6c-1.3,0-2.4,1.1-2.4,2.4v198.7c0,1.3,1.1,2.4,2.4,2.4h123.3v44.5h61.8v-44.5h111.1     c1.3,0,2.4-1.1,2.4-2.4V275.8C585.2,274.5,584.2,273.4,582.8,273.4z"/>
		</g>
	</g>
	<g id="Rounded_Rectangle_1_copy">
		<g>
			<path class="st3" d="M568.6,286.3H300.9c-1.3,0-2.4,1.1-2.4,2.4V444c0,1.3,1.1,2.4,2.4,2.4h267.7c1.3,0,2.4-1.1,2.4-2.4V288.7     C571,287.4,569.9,286.3,568.6,286.3z"/>
		</g>
	</g>
	<g id="Rectangle_2">
		<g>
			<rect x="323.3" y="297.2" class="st4" width="223.9" height="138.3"/>
		</g>
	</g>
	<g id="Rectangle_3">
		<g>
			<rect x="363" y="507.9" class="st4" width="153.9" height="8.8"/>
		</g>
	</g>
	<g id="Rectangle_2_copy">
		<g>
			<path class="st2" d="M323.3,297.2v15h223.9v-15H323.3z M348.4,335.3h7.5v-7.5h-7.5V335.3z M348.4,348.8h7.5v-7.5h-7.5V348.8z      M348.4,362.4h7.5V355h-7.5V362.4z M348.4,376h7.5v-7.5h-7.5V376z M348.4,389.6h7.5v-7.5h-7.5V389.6z M348.4,403.2h7.5v-7.5h-7.5     V403.2z M348.4,416.8h7.5v-7.5h-7.5V416.8z"/>
		</g>
	</g>
	<g id="Rectangle_2_copy_2">
		<g>
			<path class="st5" d="M365.4,348.8h25.1v-7.5h-25.1V348.8z M489.4,327.8h-30.9v7.5h30.9V327.8z M520.7,327.8h-24.5v7.5h24.5V327.8     z M520.7,341.4h-29.9v7.5h29.9V341.4z M469.4,368.6v7.5H521v-7.5H469.4z M463.3,368.6h-51.6v7.5h51.6V368.6z M501,382.1h-79.5     v7.5H501V382.1z M481.6,403.2h39.1v-7.5h-39.1V403.2z"/>
		</g>
	</g>
	<g id="Ellipse_1">
		<g>
			<path class="st6" d="M333.6,301.3c-2,0-3.6,1.6-3.6,3.6c0,2,1.6,3.6,3.6,3.6c2,0,3.6-1.6,3.6-3.6     C337.2,302.9,335.6,301.3,333.6,301.3z M365.4,335.3h49.9v-7.5h-49.9V335.3z M520.7,355h-103v7.5h103V355z M365.4,376h39.8v-7.5     h-39.8V376z M365.4,403.2h39.8v-7.5h-39.8V403.2z M365.4,416.8h34.3v-7.5h-34.3V416.8z M484,341.4h-30.9v7.5H484V341.4z      M506.8,382.1v7.5H521v-7.5H506.8z"/>
		</g>
	</g>
	<g id="Ellipse_1_copy">
		<g>
			<path class="st7" d="M344.2,301.3c-2,0-3.6,1.6-3.6,3.6c0,2,1.6,3.6,3.6,3.6s3.6-1.6,3.6-3.6     C347.7,302.9,346.1,301.3,344.2,301.3z M411.3,355h-45.9v7.5h45.9V355z M415.4,382.1h-49.9v7.5h49.9V382.1z M452.4,327.8h-30.9     v7.5h30.9V327.8z M446.6,341.4h-49.9v7.5h49.9V341.4z M406.2,409.3v7.5H521v-7.5H406.2z M411.3,403.2h64.9v-7.5h-64.9V403.2z"/>
		</g>
	</g>
	<g id="Ellipse_1_copy_2">
		<g>
			<circle class="st5" cx="354.4" cy="304.8" r="3.6"/>
		</g>
	</g>
	<g id="Rectangle_1">
		<g>
			<rect x="67.4" y="516.7" class="st7" width="589.9" height="22.8"/>
		</g>
	</g>
</g>
<g id="person_1_">
	<g id="Shape_12">
		<g>
			<path class="st8" d="M241.5,255.3c0,0-35.8-19.7-58.2,4.9c-22.4,24.6-34.5,19.2-28.9,67.2l-2.8,24.4l41.9,4.5l0.8-15.9     c0,0,35.2,10.8,41.9-28.1C242.9,273.4,241.5,255.3,241.5,255.3z"/>
		</g>
	</g>
	<g id="Shape_15">
		<g>
			<path class="st8" d="M372.9,491.6v16.6h48.6C411.1,492.4,372.9,491.6,372.9,491.6z"/>
		</g>
	</g>
	<g id="Shape_10">
		<g>
			<path class="st9" d="M164.2,350.6c-25.8-1.1-52.7,14.1-56.7,89.9c3.7,97.4,18.4,97.9,18.4,97.9l120.6,0.7     C246.5,539.1,268,347.3,164.2,350.6z"/>
		</g>
	</g>
	<g id="Shape_11">
		<g>
			<path class="st10" d="M370.9,485.2c-22-2.3-29.6-1.7-72.5-6.9c-49.5-38.5-76.2-131.2-104.5-109.8c-4.6,1.7-22.5,14.9,27.7,83.3     c50.3,68.4,53.9,66.7,95,66.4s51.6-1.2,51.6-1.2S379.2,499.2,370.9,485.2z"/>
		</g>
	</g>
	<g id="Shape_13">
		<g>
			<path class="st11" d="M185.4,440.9c-41.3-4-96.9-1.6-96.9-1.6s-24.5,2.8-20.8,30.1v69.7h158.3C226.1,539.2,226.7,445,185.4,440.9     z"/>
		</g>
	</g>
	<g id="Shape_13_copy">
		<g>
			<path class="st12" d="M177.3,447.9c-38.4-3.8-90.2-1.5-90.2-1.5s-22.8,2.6-19.3,28v64.8h147.4     C215.2,539.1,215.8,451.6,177.3,447.9z"/>
		</g>
	</g>
	<g id="Shape_14">
		<g>
			<path class="st4" d="M226.2,231.4c-11.6-15.5-30.6-16.9-64.7-4.6s-38.8,70.2-24.5,93.1s46.8,11.2,45.5-1.4     c-1.2-12.6-8.7-33.9,3.4-31.3c12.1,2.6,15.9-12.2,15.3-21.4c-0.6-9.2,39.2-4.5,44.9-13.9C251.8,242.6,237.8,246.9,226.2,231.4z"/>
		</g>
	</g>
</g>
<g id="pot_1_">
	<g id="Shape_16">
		<g>
			<path class="st13" d="M617,483.7c1-0.2,1.9-0.4,2.8-0.9c1.3-0.7,2.2-1.9,3.1-3.1c1.1-1.5,2.3-3.2,2-5c-0.3-1.5-2.4-2.6-3.5-1.8     c1.3-1.5,2.7-3,3-5c0.4-2.1-0.8-4.8-3-5c-1.4-0.2-2.6,0.7-3.6,1.8c0.8-1.7,1.1-3.6,0.7-5.4c-0.2-0.6-0.4-1.2-0.9-1.5     c-0.9-0.5-2-0.1-2.9,0.4c-2.9,1.7-5.4,4.2-7.1,7.2c0.6-1.5,1-3,1-4.6c-0.1-2.5-2-5-4.5-5c-1,0.1-2,0.5-2.9,1.1     c-2.7,1.8-4.7,4.7-5.4,7.9c0.5-3.1,0.2-6.4-0.9-9.3c-0.4-1.1-1.2-2.4-2.4-2.4c-0.8,0-1.5,0.6-2,1.2c-2,2.2-3.3,5-3.8,7.9     c-0.1-2.3-0.2-4.8-1.5-6.8c-1.3-2-4.2-3.1-6.1-1.7c-0.9,0.7-1.4,1.9-1.8,3.1c-1.1,3.7-1.4,7.7-0.7,11.5c-0.7-2.3-1.8-4.5-3.2-6.5     c-0.9-1.2-2.5-2.4-3.7-1.6c-0.8,0.6-0.9,1.7-0.8,2.7c0.2,3.6,1.4,7.2,3.3,10.3c-1.1-1.8-2.3-3.6-3.6-5.3c-0.4-0.6-1-1.2-1.7-1.4     c-1.1-0.2-2.2,0.6-2.5,1.7c-0.3,1.1-0.1,2.2,0.3,3.3c3.3,9.8,11.9,11.3,20.6,12.8c1.9,0.3,3.8,0.6,5.7,0.8H567l7.6,26.5     c0.4,2.9,2.9,5.1,5.7,5.1h30.5c2.8,0,5.3-2.2,5.8-5.1l7.6-26.5h-15.7C611.3,484.8,614.2,484.4,617,483.7z"/>
		</g>
	</g>
	<g id="Shape_16_copy">
		<g>
			<path class="st14" d="M624.9,474.7c-0.3-1.5-2.4-2.6-3.5-1.8c1.3-1.5,2.7-3,3-5c0.4-2.1-0.8-4.8-3-5c-1.4-0.2-2.6,0.7-3.6,1.8     c0.8-1.7,1.1-3.6,0.7-5.4c-0.2-0.6-0.4-1.2-0.9-1.5c-0.9-0.5-2-0.1-2.9,0.4c-2.9,1.7-5.4,4.2-7.1,7.2c0.6-1.5,1-3,1-4.6     c-0.1-2.5-2-5-4.5-5c-1,0.1-2,0.5-2.9,1.1c-2.7,1.8-4.7,4.7-5.4,7.9c0.5-3.1,0.2-6.4-0.9-9.3c-0.4-1.1-1.2-2.4-2.4-2.4     c-0.8,0-1.5,0.6-2,1.2c-2,2.2-3.3,5-3.8,7.9c-0.1-2.3-0.2-4.8-1.5-6.8c-1.3-2-4.2-3.1-6.1-1.7c-0.9,0.7-1.4,1.9-1.8,3.1     c-1.1,3.7-1.4,7.7-0.7,11.5c-0.7-2.3-1.8-4.5-3.2-6.5c-0.9-1.2-2.5-2.4-3.7-1.6c-0.8,0.6-0.9,1.7-0.8,2.7     c0.2,3.6,1.4,7.2,3.3,10.3c-1.1-1.8-2.3-3.6-3.6-5.3c-0.4-0.6-1-1.2-1.7-1.4c-1.1-0.2-2.2,0.6-2.5,1.7c-0.3,1.1-0.1,2.2,0.3,3.3     c3.3,9.8,11.9,11.3,20.6,12.8c10.4,1.9,21.3,1.7,31.7-0.6c1-0.2,1.9-0.4,2.8-0.9c1.3-0.7,2.2-1.9,3.1-3.1     C624,478.2,625.2,476.5,624.9,474.7z"/>
		</g>
	</g>
	<g id="Rectangle_5">
		<g>
			<path class="st7" d="M622.1,473.6c-0.2-2-1.7-4-3.7-4.5c-2.1-0.5-4.4,1.1-4.4,3.2c0.4-2.8,0.3-6.5-2.3-7.5     c-0.7-0.3-1.5-0.3-2.3-0.2c-3.8,0.4-7.4,2.1-10.1,4.8c1.4-1.9,1.2-4.7-0.3-6.4s-4.3-2.2-6.3-1.1c-2.5,1.4-3.4,4.4-4.1,7.2     c-0.4-4.8-6.5-8.2-10.8-6c-0.8,0.4-1.6,1-2,1.8c-1.5,2.8,1.4,6.1,1,9.3c-1.5-1.6-3.1-3.2-5.1-3.9c-2-0.7-4.7-0.2-5.7,1.7     c-0.5,1-0.5,2.2-0.3,3.3c1.7,9.1,12.9,7.8,19.7,7.9c9.7,0.3,19.3,0,28.9-0.2c0.9,0,1.8,0,2.6-0.3c1.6-0.5,2.7-1.8,3.6-3.2     C621.6,477.8,622.3,475.7,622.1,473.6z"/>
		</g>
	</g>
	<g id="Rectangle_4">
		<g>
			<path class="st15" d="M626,479.8h-61.2c-1.9,0-3.5,1.6-3.5,3.5v3.3c0,1.9,1.6,3.5,3.5,3.5H626c1.9,0,3.5-1.6,3.5-3.5v-3.3     C629.5,481.4,627.9,479.8,626,479.8z"/>
		</g>
	</g>
</g>
</svg>