<svg id="atom-1294810" xmlns="http://www.w3.org/2000/svg" width="100" height="88.378" viewBox="0 0 100 88.378">
  <path id="Path_445" data-name="Path 445" d="M100,44.189c0-6.8-10.63-11.822-24.783-14.529a84.822,84.822,0,0,0,2.764-9.541C80.174,10.094,79.114,3.263,75,.888A6.887,6.887,0,0,0,71.51,0C65.89,0,58.05,5.665,50,15,41.955,5.665,34.115,0,28.49,0A6.9,6.9,0,0,0,25,.888c-5.891,3.4-4.918,15.141-.175,28.767C10.651,32.356,0,37.386,0,44.189S10.634,56.011,24.79,58.72a83.248,83.248,0,0,0-2.767,9.539C19.829,78.286,20.887,85.116,25,87.49a6.892,6.892,0,0,0,3.491.886c5.625,0,13.464-5.667,21.511-15,8.047,9.331,15.886,15,21.509,15A6.874,6.874,0,0,0,75,87.49c4.114-2.374,5.174-9.2,2.98-19.231a84.051,84.051,0,0,0-2.766-9.539C89.37,56.012,100,50.988,100,44.189ZM71.51,2.584a4.365,4.365,0,0,1,2.2.543c3.016,1.741,3.651,7.733,1.747,16.44a82.319,82.319,0,0,1-2.814,9.63c-4.166-.695-8.585-1.194-13.1-1.49a130.3,130.3,0,0,0-7.834-10.67C59.293,8.176,66.646,2.584,71.51,2.584Zm-9.2,48.71q-2.062,3.569-4.242,6.9c-2.6.132-5.287.206-8.069.206s-5.474-.074-8.067-.206q-2.178-3.325-4.242-6.9-2.082-3.609-3.849-7.081c1.2-2.369,2.477-4.753,3.851-7.13s2.79-4.68,4.24-6.9c2.593-.131,5.285-.2,8.067-.2s5.473.074,8.069.2q2.172,3.333,4.239,6.9c1.37,2.37,2.64,4.747,3.842,7.106-1.2,2.362-2.471,4.739-3.839,7.1Zm5.259-4.225c1.587,3.3,3,6.558,4.2,9.72-3.25.521-6.758.926-10.488,1.2q1.656-2.625,3.265-5.4C65.61,50.751,66.607,48.907,67.571,47.069ZM56.294,60.849C54.226,63.868,52.112,66.7,50,69.293c-2.109-2.591-4.22-5.426-6.294-8.444,2.1.088,4.2.138,6.294.138S54.2,60.937,56.294,60.849ZM38.721,57.992c-3.733-.277-7.241-.683-10.49-1.2,1.2-3.157,2.611-6.414,4.2-9.72q1.455,2.787,3.026,5.519Q37.061,55.363,38.721,57.992Zm-6.3-16.654c-1.636-3.389-3.046-6.653-4.226-9.741,3.26-.52,6.781-.931,10.53-1.212q-1.66,2.627-3.268,5.407C34.386,37.639,33.388,39.493,32.417,41.338ZM43.711,27.533c2.07-3.019,4.181-5.855,6.29-8.449,2.111,2.594,4.225,5.43,6.293,8.449Q53.155,27.4,50,27.393C47.9,27.394,45.8,27.442,43.711,27.533Zm20.837,8.259c-1.07-1.859-2.16-3.656-3.265-5.407,3.73.281,7.238.687,10.488,1.2-1.2,3.157-2.613,6.419-4.2,9.722C66.607,39.474,65.61,37.629,64.548,35.792ZM26.294,3.127a4.326,4.326,0,0,1,2.2-.543c4.864,0,12.217,5.592,19.8,14.453a130.765,130.765,0,0,0-7.834,10.67c-4.526.3-8.962.8-13.144,1.5-4.886-13.794-5.036-23.762-1.018-26.08ZM2.585,44.189c0-4.637,8.707-9.493,23.1-12.159C27.168,36,28.949,40.1,30.958,44.17a130.273,130.273,0,0,0-5.323,12.167c-14.364-2.664-23.05-7.516-23.05-12.148Zm25.905,41.6a4.317,4.317,0,0,1-2.2-.538c-3.015-1.742-3.652-7.734-1.746-16.442a82,82,0,0,1,2.814-9.633c4.166.7,8.586,1.195,13.092,1.491a131.9,131.9,0,0,0,7.834,10.671c-7.58,8.86-14.934,14.451-19.8,14.451ZM75.452,68.813c1.907,8.708,1.272,14.7-1.743,16.442a4.382,4.382,0,0,1-2.2.539c-4.864,0-12.217-5.592-19.8-14.452a131.909,131.909,0,0,0,7.837-10.671c4.508-.3,8.927-.795,13.093-1.491A81.427,81.427,0,0,1,75.452,68.813ZM74.366,56.338a129.94,129.94,0,0,0-5.31-12.148,130.85,130.85,0,0,0,5.312-12.148c14.361,2.665,23.049,7.519,23.049,12.148S88.729,53.673,74.366,56.338Z" fill="#3693ba"/>
  <circle id="Ellipse_44" data-name="Ellipse 44" cx="5.492" cy="5.492" r="5.492" transform="translate(44.509 38.697)" fill="#3693ba"/>
</svg>
